<svg width="20" height="22" viewBox="0 0 20 22" fill="none" xmlns="http://www.w3.org/2000/svg">
<path d="M1 5.44531H18.7785" stroke="#ffffff" stroke-width="1.5" stroke-linecap="round" stroke-linejoin="round"/>
<path d="M7.66699 9.89062V16.5576" stroke="#ffffff" stroke-width="1.5" stroke-linecap="round" stroke-linejoin="round"/>
<path d="M12.1123 9.89062V16.5576" stroke="#ffffff" stroke-width="1.5" stroke-linecap="round" stroke-linejoin="round"/>
<path d="M2.11182 5.44531L3.22297 18.7792C3.22297 19.3686 3.45711 19.9338 3.87387 20.3506C4.29063 20.7673 4.85589 21.0015 5.44528 21.0015H14.3345C14.9239 21.0015 15.4892 20.7673 15.9059 20.3506C16.3227 19.9338 16.5568 19.3686 16.5568 18.7792L17.668 5.44531" stroke="#ffffff" stroke-width="1.5" stroke-linecap="round" stroke-linejoin="round"/>
<path d="M6.55615 5.44462V2.11115C6.55615 1.81646 6.67322 1.53383 6.8816 1.32545C7.08998 1.11707 7.37261 1 7.66731 1H12.1119C12.4066 1 12.6892 1.11707 12.8976 1.32545C13.106 1.53383 13.2231 1.81646 13.2231 2.11115V5.44462" stroke="#ffffff" stroke-width="1.5" stroke-linecap="round" stroke-linejoin="round"/>
</svg>
