<svg width="378" height="309" viewBox="0 0 378 309" fill="none" xmlns="http://www.w3.org/2000/svg">
<path d="M11.8496 141.85V145.062" stroke="#D2D8DF" stroke-width="2.921" stroke-miterlimit="10" stroke-linecap="round"/>
<path d="M4.63379 143.59L7.25853 146.293" stroke="#D2D8DF" stroke-width="2.921" stroke-miterlimit="10" stroke-linecap="round"/>
<path d="M1.56348 150.783H5.27517" stroke="#D2D8DF" stroke-width="2.921" stroke-miterlimit="10" stroke-linecap="round"/>
<path d="M4.33398 158.107L6.95873 155.404" stroke="#D2D8DF" stroke-width="2.921" stroke-miterlimit="10" stroke-linecap="round"/>
<path d="M11.8496 158.984V155.771" stroke="#D2D8DF" stroke-width="2.921" stroke-miterlimit="10" stroke-linecap="round"/>
<path d="M17.2033 156.843L15.0615 154.701" stroke="#D2D8DF" stroke-width="2.921" stroke-miterlimit="10" stroke-linecap="round"/>
<path d="M21.4871 151.488H18.2744" stroke="#D2D8DF" stroke-width="2.921" stroke-miterlimit="10" stroke-linecap="round"/>
<path d="M19.3459 143.992L17.2041 146.134" stroke="#D2D8DF" stroke-width="2.921" stroke-miterlimit="10" stroke-linecap="round"/>
<path d="M184.262 1.56445V3.70623" stroke="#D2D8DF" stroke-width="2.921" stroke-miterlimit="10" stroke-linecap="round"/>
<path d="M177.837 7.99023H179.979" stroke="#D2D8DF" stroke-width="2.921" stroke-miterlimit="10" stroke-linecap="round"/>
<path d="M184.262 14.4152V12.2734" stroke="#D2D8DF" stroke-width="2.921" stroke-miterlimit="10" stroke-linecap="round"/>
<path d="M189.616 7.99023H187.475" stroke="#D2D8DF" stroke-width="2.921" stroke-miterlimit="10" stroke-linecap="round"/>
<path d="M60.0391 91.5195V94.7322" stroke="#D2D8DF" stroke-width="2.921" stroke-miterlimit="10" stroke-linecap="round"/>
<path d="M50.4014 101.156H53.614" stroke="#D2D8DF" stroke-width="2.921" stroke-miterlimit="10" stroke-linecap="round"/>
<path d="M60.0391 109.724V106.512" stroke="#D2D8DF" stroke-width="2.921" stroke-miterlimit="10" stroke-linecap="round"/>
<path d="M68.6062 101.156H65.3936" stroke="#D2D8DF" stroke-width="2.921" stroke-miterlimit="10" stroke-linecap="round"/>
<path d="M290.551 208.287C291.468 208.287 292.364 208.559 293.127 209.068C293.889 209.577 294.484 210.301 294.835 211.148C295.186 211.995 295.278 212.927 295.099 213.827C294.92 214.726 294.479 215.552 293.83 216.201C293.182 216.849 292.356 217.291 291.457 217.47C290.557 217.649 289.625 217.557 288.778 217.206C287.931 216.855 287.207 216.261 286.697 215.499C286.188 214.736 285.916 213.84 285.916 212.923" stroke="#D2D8DF" stroke-width="2.921" stroke-miterlimit="10" stroke-linecap="round"/>
<path d="M311.764 166.226C314.516 165.367 318.734 162.002 319.711 158.381C320.596 161.582 324.308 165.367 327.658 165.654C323.887 166.99 320.283 170.955 319.711 174.07C319.321 170.895 314.334 166.689 311.764 166.226Z" fill="#EBECEE"/>
<path d="M29.2754 206.86C30.179 206.527 31.001 206.005 31.6862 205.329C32.3714 204.652 32.904 203.837 33.2484 202.938C33.5365 203.838 34.0546 204.647 34.7514 205.286C35.4482 205.924 36.2995 206.37 37.2214 206.579C36.2837 206.932 35.4388 207.494 34.7504 208.222C34.0621 208.95 33.5485 209.826 33.2484 210.782C33.0535 209.194 30.5605 207.09 29.2754 206.86Z" fill="#EBECEE"/>
<path d="M54.8186 57.8899C54.8184 58.6006 54.6075 59.2954 54.2124 59.8863C53.8174 60.4771 53.2561 60.9376 52.5993 61.2095C51.9426 61.4813 51.22 61.5523 50.523 61.4135C49.8259 61.2747 49.1856 60.9324 48.6831 60.4297C48.1806 59.927 47.8384 59.2867 47.6998 58.5896C47.5613 57.8924 47.6325 57.1699 47.9045 56.5132C48.1766 55.8566 48.6372 55.2954 49.2282 54.9005C49.8192 54.5057 50.514 54.2949 51.2248 54.2949C51.6968 54.2949 52.1642 54.3879 52.6003 54.5686C53.0364 54.7493 53.4327 55.0141 53.7664 55.3479C54.1001 55.6818 54.3648 56.0781 54.5454 56.5142C54.7259 56.9504 54.8188 57.4178 54.8186 57.8899Z" fill="#D1D8DF"/>
<path d="M294.797 67.5419C294.797 68.7298 294.444 69.891 293.784 70.8785C293.124 71.866 292.186 72.6355 291.088 73.0898C289.99 73.5441 288.783 73.6627 287.618 73.4307C286.453 73.1987 285.383 72.6265 284.543 71.7864C283.703 70.9462 283.131 69.876 282.899 68.7108C282.668 67.5457 282.787 66.3381 283.242 65.2407C283.696 64.1432 284.466 63.2053 285.454 62.5453C286.442 61.8854 287.603 61.5332 288.791 61.5332C289.58 61.5333 290.361 61.6889 291.09 61.9909C291.819 62.293 292.481 62.7356 293.039 63.2936C293.596 63.8515 294.039 64.5139 294.34 65.2428C294.642 65.9718 294.798 66.753 294.797 67.5419Z" fill="#EBECEE"/>
<path d="M378.003 51.2646C378.003 52.2067 377.723 53.1275 377.2 53.9107C376.676 54.6939 375.932 55.3042 375.061 55.6645C374.191 56.0249 373.233 56.119 372.309 55.9351C371.385 55.7512 370.536 55.2975 369.87 54.6313C369.204 53.9652 368.75 53.1164 368.566 52.1924C368.382 51.2684 368.477 50.3107 368.837 49.4402C369.197 48.5697 369.808 47.8256 370.591 47.3019C371.374 46.7782 372.295 46.4985 373.237 46.498C373.863 46.4978 374.483 46.6209 375.061 46.8603C375.64 47.0997 376.165 47.4508 376.608 47.8935C377.051 48.3362 377.402 48.8617 377.641 49.4402C377.881 50.0186 378.004 50.6385 378.003 51.2646Z" fill="#EBECEE"/>
<path d="M121.983 273.856C121.982 274.449 121.805 275.028 121.475 275.52C121.146 276.012 120.677 276.395 120.13 276.621C119.583 276.847 118.98 276.906 118.399 276.791C117.818 276.675 117.285 276.39 116.866 275.971C116.447 275.553 116.161 275.019 116.045 274.439C115.928 273.858 115.987 273.255 116.212 272.708C116.438 272.16 116.821 271.691 117.313 271.361C117.804 271.031 118.383 270.853 118.975 270.852C119.37 270.851 119.761 270.928 120.126 271.079C120.491 271.23 120.823 271.451 121.102 271.73C121.382 272.009 121.603 272.341 121.755 272.706C121.906 273.07 121.983 273.462 121.983 273.856Z" stroke="#D2D8DF" stroke-width="2.921" stroke-miterlimit="10" stroke-linecap="round"/>
<path d="M120.196 34.7961C120.195 35.5069 119.984 36.2016 119.589 36.7925C119.194 37.3834 118.633 37.8439 117.976 38.1157C117.32 38.3876 116.597 38.4586 115.9 38.3198C115.203 38.181 114.563 37.8386 114.06 37.336C113.558 36.8333 113.215 36.1929 113.077 35.4958C112.938 34.7987 113.009 34.0761 113.281 33.4195C113.554 32.7629 114.014 32.2016 114.605 31.8068C115.196 31.4119 115.891 31.2012 116.602 31.2012C117.074 31.2012 117.541 31.2942 117.977 31.4748C118.413 31.6555 118.81 31.9203 119.143 32.2542C119.477 32.588 119.742 32.9843 119.922 33.4205C120.103 33.8566 120.196 34.3241 120.196 34.7961Z" stroke="#D2D8DF" stroke-width="2.921" stroke-miterlimit="10" stroke-linecap="round"/>
<path d="M211.868 307.127C211.045 307.441 210.148 307.503 209.29 307.306C208.433 307.11 207.652 306.663 207.048 306.023C206.444 305.383 206.044 304.578 205.897 303.71C205.751 302.843 205.865 301.951 206.225 301.148C206.585 300.345 207.175 299.667 207.921 299.199C208.666 298.732 209.534 298.496 210.414 298.521C211.293 298.547 212.146 298.833 212.863 299.343C213.58 299.853 214.13 300.564 214.443 301.386C214.863 302.489 214.827 303.714 214.344 304.79C213.861 305.867 212.97 306.708 211.868 307.127Z" stroke="#D2D8DF" stroke-width="2.921" stroke-miterlimit="10" stroke-linecap="round"/>
<path d="M210.498 222.167H122.686C119.702 222.154 116.844 220.961 114.738 218.848C112.631 216.735 111.446 213.874 111.441 210.891V85.658C111.446 82.6745 112.631 79.8141 114.738 77.7018C116.845 75.5895 119.702 74.3969 122.686 74.3848H210.498C213.482 74.3969 216.339 75.5895 218.446 77.7018C220.553 79.8141 221.738 82.6745 221.743 85.658V210.891C221.738 213.874 220.553 216.735 218.447 218.848C216.34 220.961 213.482 222.154 210.498 222.167Z" fill="#E0E2EE"/>
<path d="M203.002 227.521H115.19C112.206 227.508 109.348 226.315 107.241 224.202C105.135 222.089 103.95 219.228 103.945 216.244V91.0115C103.95 88.028 105.135 85.1676 107.242 83.0553C109.349 80.943 112.206 79.7504 115.19 79.7383H203.002C205.986 79.7504 208.843 80.943 210.95 83.0553C213.057 85.1676 214.242 88.028 214.247 91.0115V216.244C214.242 219.228 213.057 222.089 210.95 224.202C208.844 226.315 205.986 227.508 203.002 227.521Z" fill="#E8EBF2"/>
<path d="M195.712 231.749H107.713C104.733 231.745 101.875 230.561 99.7649 228.457C97.6545 226.353 96.4625 223.499 96.4492 220.519V95.8053C96.4628 92.8255 97.655 89.9722 99.7654 87.8686C101.876 85.765 104.733 84.5821 107.713 84.5781H195.712C198.692 84.5812 201.55 85.7638 203.661 87.8675C205.772 89.9712 206.965 92.825 206.979 95.8053V220.519C206.965 223.499 205.772 226.353 203.661 228.457C201.55 230.561 198.692 231.744 195.712 231.748" fill="#D8DBEA"/>
<path d="M195.712 231.749H107.713C104.733 231.745 101.875 230.561 99.7649 228.457C97.6545 226.353 96.4625 223.499 96.4492 220.519V95.8053C96.4628 92.8255 97.655 89.9722 99.7654 87.8686C101.876 85.765 104.733 84.5821 107.713 84.5781H195.712C198.692 84.5812 201.55 85.7638 203.661 87.8675C205.772 89.9712 206.965 92.825 206.979 95.8053V220.519C206.965 223.499 205.772 226.353 203.661 228.457C201.55 230.561 198.692 231.744 195.712 231.748" fill="#F1F2F7"/>
<path d="M183.028 122.574H118.03C117.157 122.593 116.312 122.266 115.68 121.664C115.048 121.062 114.679 120.234 114.654 119.362C114.679 118.489 115.048 117.662 115.68 117.06C116.312 116.458 117.157 116.131 118.03 116.149H183.033C183.905 116.132 184.748 116.46 185.38 117.061C186.011 117.663 186.379 118.49 186.404 119.362C186.379 120.234 186.01 121.062 185.378 121.664C184.746 122.266 183.901 122.593 183.028 122.574Z" fill="#E0E2EE"/>
<path d="M183.028 141.85H118.03C117.157 141.868 116.312 141.541 115.68 140.939C115.048 140.337 114.679 139.51 114.654 138.637C114.679 137.765 115.048 136.937 115.68 136.335C116.312 135.734 117.157 135.406 118.03 135.425H183.033C183.905 135.407 184.748 135.735 185.38 136.337C186.011 136.939 186.379 137.765 186.404 138.637C186.379 139.51 186.01 140.337 185.378 140.939C184.746 141.541 183.901 141.868 183.028 141.85Z" fill="#E0E2EE"/>
<path d="M183.028 161.127H118.03C117.157 161.146 116.312 160.818 115.68 160.216C115.048 159.615 114.679 158.787 114.654 157.915C114.68 157.042 115.048 156.215 115.681 155.613C116.313 155.012 117.157 154.684 118.03 154.702H183.033C183.904 154.685 184.748 155.013 185.379 155.615C186.01 156.216 186.378 157.043 186.404 157.915C186.379 158.787 186.01 159.615 185.378 160.216C184.746 160.818 183.901 161.146 183.028 161.127Z" fill="#E0E2EE"/>
<path d="M183.028 180.403H118.03C117.157 180.421 116.312 180.094 115.68 179.492C115.048 178.89 114.679 178.063 114.654 177.19C114.679 176.317 115.048 175.49 115.68 174.888C116.312 174.286 117.157 173.959 118.03 173.977H183.033C183.905 173.96 184.748 174.288 185.38 174.89C186.011 175.491 186.379 176.318 186.404 177.19C186.379 178.063 186.01 178.89 185.378 179.492C184.746 180.094 183.901 180.421 183.028 180.403Z" fill="#E0E2EE"/>
<path d="M151.958 199.678H118.045C117.17 199.697 116.324 199.37 115.689 198.769C115.054 198.167 114.682 197.34 114.654 196.465C114.682 195.591 115.054 194.764 115.689 194.162C116.324 193.56 117.17 193.234 118.045 193.253H151.958C152.832 193.234 153.678 193.56 154.313 194.162C154.948 194.764 155.32 195.591 155.348 196.465C155.32 197.34 154.948 198.167 154.313 198.769C153.678 199.37 152.832 199.697 151.958 199.678Z" fill="#E0E2EE"/>
<path d="M220.409 174.766C214.221 180.957 206.062 184.789 197.346 185.598C188.629 186.407 179.905 184.141 172.683 179.194C170.79 177.876 169.016 176.394 167.382 174.766C164.862 172.259 162.725 169.395 161.038 166.266C159.151 162.889 157.824 159.229 157.108 155.428C155.935 149.402 156.259 143.181 158.053 137.31C159.848 131.439 163.056 126.099 167.397 121.759C171.738 117.419 177.079 114.211 182.95 112.418C188.821 110.625 195.042 110.301 201.068 111.475C204.865 112.211 208.524 113.537 211.912 115.404C213.972 116.539 215.922 117.864 217.735 119.361C218.658 120.121 219.542 120.927 220.384 121.775C223.878 125.246 226.651 129.373 228.544 133.92C230.437 138.466 231.412 143.342 231.415 148.266C231.417 153.191 230.446 158.068 228.557 162.616C226.668 167.164 223.899 171.294 220.409 174.768" fill="white" fill-opacity="0.1"/>
<path d="M192.301 192.182C182.31 192.173 172.614 188.794 164.782 182.591C156.95 176.389 151.438 167.726 149.139 158.003C146.84 148.281 147.887 138.067 152.112 129.013C156.336 119.96 163.491 112.596 172.42 108.112C181.348 103.629 191.527 102.288 201.312 104.306C211.097 106.325 219.915 111.584 226.34 119.235C232.765 126.886 236.422 136.48 236.719 146.466C237.016 156.452 233.936 166.247 227.977 174.266C226.682 176 225.262 177.638 223.73 179.168C222.2 180.699 220.562 182.119 218.83 183.417C211.162 189.119 201.858 192.194 192.302 192.182H192.301ZM192.293 113.133C185.449 113.133 178.759 115.162 173.069 118.964C167.378 122.766 162.942 128.17 160.322 134.493C157.702 140.815 157.015 147.772 158.349 154.485C159.682 161.198 162.975 167.365 167.813 172.206C171.012 175.481 174.83 178.089 179.045 179.879C183.26 181.668 187.788 182.603 192.367 182.63C196.945 182.657 201.484 181.775 205.719 180.035C209.955 178.295 213.803 175.732 217.041 172.494C220.279 169.257 222.842 165.408 224.581 161.173C226.321 156.938 227.203 152.399 227.177 147.82C227.15 143.241 226.215 138.713 224.425 134.498C222.636 130.284 220.028 126.466 216.752 123.266C213.548 120.044 209.736 117.489 205.538 115.75C201.339 114.01 196.838 113.121 192.293 113.133Z" fill="#E0E2EE"/>
<path d="M292.017 244.594L291.289 245.322C288.958 247.639 285.806 248.94 282.52 248.94C279.234 248.94 276.081 247.639 273.751 245.322L229.239 200.811L247.505 182.545L292.017 227.056C294.334 229.387 295.634 232.539 295.634 235.825C295.634 239.111 294.334 242.264 292.017 244.594Z" fill="url(#paint0_linear_7629_6731)"/>
<path d="M228.936 172.906L242.089 186.06L232.751 195.395L219.601 182.241C221.369 180.917 223.04 179.468 224.602 177.905C226.166 176.346 227.614 174.676 228.936 172.906" fill="#E0E2EE"/>
<path d="M291.35 226.509L273.2 244.656L269.933 241.386L288.08 223.238L291.35 226.509Z" fill="#666666"/>
<path d="M248.514 183.173L229.867 201.82L227.097 199.05L245.744 180.402L248.514 183.173Z" fill="#666666"/>
<path d="M207.821 118.612L162.094 164.339C160.397 161.303 159.203 158.012 158.561 154.594L198.076 115.078C201.489 115.742 204.777 116.934 207.821 118.612Z" fill="white" fill-opacity="0.5"/>
<path d="M222.814 129.479L173.374 176.119C171.586 174.946 169.904 173.621 168.347 172.156C167.544 171.405 166.78 170.614 166.057 169.786L216.098 122.574C216.974 123.252 217.811 123.974 218.613 124.737C220.157 126.184 221.563 127.772 222.814 129.479Z" fill="white" fill-opacity="0.5"/>
<defs>
<linearGradient id="paint0_linear_7629_6731" x1="262.437" y1="182.545" x2="262.437" y2="248.94" gradientUnits="userSpaceOnUse">
<stop stop-color="#333333"/>
<stop offset="1" stop-color="#333333"/>
</linearGradient>
</defs>
</svg>
