<svg width="90" height="90" viewBox="0 0 90 90" fill="none" xmlns="http://www.w3.org/2000/svg"><circle opacity="0.9" cx="45" cy="45" r="45" fill="#30587b"></circle><path fill-rule="evenodd" clip-rule="evenodd" d="M43.0137 57.0273C35.8264 57.0273 30 51.2009 30 44.0137C30 36.8264 35.8264 31 43.0137 31C50.2009 31 56.0273 36.8264 56.0273 44.0137C56.0273 47.021 55.0073 49.79 53.2943 51.9937L60.9649 59.6643L58.6644 61.9648L50.9938 54.2942C48.7901 56.0072 46.021 57.0273 43.0137 57.0273ZM43.0137 53.7739C48.4042 53.7739 52.774 49.4041 52.774 44.0137C52.774 38.6232 48.4042 34.2534 43.0137 34.2534C37.6233 34.2534 33.2535 38.6232 33.2535 44.0137C33.2535 49.4041 37.6233 53.7739 43.0137 53.7739Z" fill="#ffffff"></path><circle cx="43" cy="44" r="11" fill="#30587b"></circle><path d="M40.631 49.4999L36 44.8738L37.6324 43.243L40.631 46.2269L47.8676 39L49.5 40.6423L40.631 49.4999Z" fill="#47BF9C"></path></svg>